<svg id="final_svg" viewBox="198.37149047851562 459.08795166015625 605.7389526367188 158.99462890625" xmlns="http://www.w3.org/2000/svg" xmlns:xlink="http://www.w3.org/1999/xlink" xml:space="preserve">
      <g id="png_group" transform="translate(645.115578, 459.088165) scale(0.5047400793650794)" opacity="1">
      <g height="158.993125" width="158.993125" transform="rotate(0)">
                  <style type="text/css">.st0{fill:#0B0BB5;}</style>
          <g id="color_index_0" fill="rgba(39, 21, 107, 1)">
                          <path d="M302.6,96.2c-7.9-18.8-19.3-35.6-33.8-50.1C239.5,16.6,199.2-0.1,157.5,0c-11.9,0-23.9,1.3-35.5,4l2.6,11.9		c10.7-2.4,21.8-3.7,33-3.7c80.1,0,145.3,65.2,145.3,145.3c0,9-0.8,18-2.5,26.8l-9.5-2.2c1.5-8.1,2.2-16.4,2.2-24.6		c0-15.7-2.7-31-7.8-45.6l-11.6,3.9c4.7,13.4,7.2,27.3,7.2,41.7c0,17.2-3.6,33.8-10.4,49.6l-8.7-4.3c6.2-14.2,9.4-29.7,9.4-45.2		c0-30.3-11.8-58.9-33.3-80.3c-21.5-21.5-50-33.3-80.3-33.3c-17.2,0-34.1,4-49.5,11.3C91.5,63.2,77.2,75.5,66,90.2l9.7,7.4		c9.9-13.2,22.9-24.2,37.7-31.4c13.6-6.6,29-10.2,44.1-10.1c55.9,0,101.4,45.5,101.4,101.4c0,15.7-3.7,31.3-10.7,45.4		c-17.3,34.6-52.1,56.1-90.7,56.1c-25.5,0-50.1-9.6-68.7-26.9l-8.1,9.1c20.9,19.3,48.4,30,77.1,30c21.5,0,42.4-6,60.5-17.4		c15.8-10,29-23.8,38.3-40l8.7,4.3c-21.8,38.8-62.7,62.7-107.6,62.7c-37.6,0.2-74.1-17.6-97.2-47.4l18-12.6		c-14.3-17.8-22.4-40.6-22.3-63.5c0-17,4.1-33.3,12.1-48.2l-10.9-5.6c-8.8,16.4-13.5,35.1-13.5,53.8		c-0.2,21.3,6.1,42.5,17.3,60.5l-8,5.6c-12.5-19.7-19.1-42.5-19.1-66c0-47,27.3-90.6,69.8-111.1c16.7-8.1,35.1-12.2,53.7-12.2		c47.6-0.1,90.3,27,111.1,69.8l10.9-5.5c-11.2-22.8-28.4-42.2-50-55.7c-21.6-13.6-46.5-20.8-72.1-20.8		c-18.4-0.1-36.6,3.8-53.5,10.9l-9.4-19.8c-28.4,12.9-52.9,32.3-69.7,59.7c-16.1,25.3-24.7,54.6-24.7,84.8		c0,32.6,9.9,63.9,28.5,90.4c28.9,41.7,78.2,67.4,129,67.2c28.6,0,56.7-7.8,81.1-22.5c24.2-14.6,44.3-35.5,57.6-60.5l-10.7-5.9		c-25.2,47.1-74.6,76.6-128,76.6c-33.4,0-65.9-11.6-91.8-32.7l6.5-7.3c24.1,19.5,54.3,30.2,85.3,30.2c25.7,0,50.6-7.2,72.2-20.8		c21-13.3,38-32,49.1-54.1c3.8-7.7,7-15.8,9.3-24.1l21.5,5c3.4-13.5,5.5-27.4,5.4-41.5c0-21.1-4.2-41.7-12.4-61.1L302.6,96.2z"/>
                          <path d="M238.2,29.4l4.2,8.8c-20.2,10.9-37.4,26.9-50,46.3c-13.9,21.8-21.3,47-21.3,73c-0.2,36.6,15,71.8,41.1,97.3l-6.5,7.3		c-28.2-27.1-44.4-65.3-44.3-104.6c0-53,30-103.1,76.6-128.1L238.2,29.4z"/>
                      </g>
              </g>
    </g>
    <g id="text_group" transform="rotate(0)" opacity="1">
      <g id="text_layer_1_0" fill="rgba(67, 67, 74, 1)" transform="translate(188.16148234409553, 444.49999439314126)">
                  <path d="M75.35 136.73C75.91 136.31 75.91 135.89 75.63 135.47L73.96 133.23C73.68 132.81 73.26 132.67 72.84 133.09C64.59 140.22 54.52 143.86 43.90 143.86C24.61 143.86 14.82 131.70 14.82 115.06L14.82 78.57C14.82 61.93 24.47 49.77 43.62 49.77C53.41 49.77 62.91 53.13 70.60 59.28C71.16 59.70 71.58 59.56 71.86 59.14L73.40 56.90C73.82 56.62 73.82 56.06 73.26 55.78C64.59 48.79 54.24 45.44 43.76 45.44C22.51 45.44 10.21 59.00 10.21 78.57L10.21 115.06C10.21 134.63 22.37 148.19 43.90 148.19C54.80 148.19 65.14 144.42 75.35 136.73Z"/>
                  <path d="M101.34 57.04L101.34 149.44C101.34 150.55 101.90 151.11 102.45 151.11L107.81 151.11C108.37 151.11 108.93 150.55 108.93 149.44L108.93 57.04C108.93 55.93 108.37 55.37 107.81 55.37L102.45 55.37C101.90 55.37 101.34 55.93 101.34 57.04Z"/>
                  <path d="M133.86 151.11C134.42 151.11 134.98 150.55 134.98 149.44L134.98 110.14L162.35 82.77L251.96 151.11C252.52 151.11 253.08 150.55 253.08 149.44L253.08 142.02C253.08 141.46 252.52 140.90 251.96 140.90L180.06 85.27L247.48 17.85C248.04 17.29 248.04 16.73 247.48 16.73L240.06 16.73C239.50 16.73 238.94 17.29 238.94 17.85L136.58 120.21L136.58 57.04C136.58 55.93 136.02 55.37 135.46 55.37L130.10 55.37C129.54 55.37 128.98 55.93 128.98 57.04L128.98 149.44C128.98 150.55 129.54 151.11 130.10 151.11L133.86 151.11Z"/>
                  <path d="M318.28 151.11C319.39 151.11 319.95 150.55 319.95 149.44L319.95 144.08C319.95 143.52 319.39 142.96 318.28 142.96L226.76 142.96L226.76 57.04C226.76 55.93 226.20 55.37 225.64 55.37L220.28 55.37C219.72 55.37 219.16 55.93 219.16 57.04L219.16 149.44C219.16 150.55 219.72 151.11 220.28 151.11L318.28 151.11Z"/>
                  <path d="M426.92 128.46L426.92 57.04C426.92 55.93 426.36 55.37 425.80 55.37L420.44 55.37C419.88 55.37 419.32 55.93 419.32 57.04L419.32 128.46C419.32 152.77 400.59 168.71 375.42 168.71C350.25 168.71 331.52 152.77 331.52 128.46L331.52 57.04C331.52 55.93 330.96 55.37 330.40 55.37L325.04 55.37C324.48 55.37 323.92 55.93 323.92 57.04L323.92 128.46C323.92 163.35 347.20 177.19 375.42 177.19C403.64 177.19 426.92 163.35 426.92 128.46Z"/>
                  <path d="M545.00 133.65C545.00 115.61 531.16 105.26 485.82 95.47C447.64 87.93 430.43 77.02 430.43 58.98C430.43 40.11 453.15 30.87 474.35 30.87C495.55 30.87 515.15 37.52 534.47 53.13C535.03 53.69 535.58 53.69 536.14 53.13L538.08 50.63C538.64 50.07 538.64 49.51 538.08 49.51C517.93 32.25 495.55 24.71 472.41 24.71C437.52 24.71 414.24 37.52 414.24 62.14C414.24 80.18 426.09 91.65 467.76 101.00C519.09 112.47 536.86 127.00 536.86 147.78C536.86 168.57 515.15 181.39 485.82 181.39C455.65 181.39 431.54 174.74 404.17 154.43C403.61 154.43 402.50 154.43 401.94 154.43L399.44 157.49C398.88 158.05 398.88 158.61 399.44 158.61C428.77 179.95 456.21 187.49 485.82 187.49C525.74 187.49 545.00 168.57 545.00 133.65Z"/>
              </g>
    </g>
  </svg>